Coordinates
version=1
nRows=29
nColumns=22
inDegrees=yes

Units are S.I. units (second, meters, Newtons, ...)
If the header above contains a line with 'inDegrees', this indicates whether rotational values are in degrees (yes) or radians (no).

endheader
time	pelvis_tilt	pelvis_list	pelvis_rotation	pelvis_tx	pelvis_ty	pelvis_tz	hip_flexion_r	hip_adduction_r	hip_rotation_r	knee_angle_r	ankle_angle_r	subtalar_angle_r	hip_flexion_l	hip_adduction_l	hip_rotation_l	knee_angle_l	ankle_angle_l	subtalar_angle_l	lumbar_extension	lumbar_bending	lumbar_rotation
      0.01000000	      1.40788952	     -1.44197994	     -2.44727531	     -1.19014387	      1.07894466	     -0.60643049	     -3.97575440	      1.57381604	     -0.00446813	     -9.65762072	     12.33042930	     -3.36380474	     -2.90452200	     -0.62855237	     -6.74505403	    -11.92325543	     14.77227491	     -0.06308366	     -1.62149043	     -0.79803855	     -5.19567933
      0.02000000	      1.42621308	     -1.43967378	     -2.42064413	     -1.19027999	      1.07896719	     -0.60641211	     -3.98589773	      1.57522755	     -0.01324282	     -9.66567749	     12.33503193	     -3.36544420	     -2.90341996	     -0.63026734	     -6.71018885	    -11.94383294	     14.77702334	     -0.05703729	     -1.63698784	     -0.80222802	     -5.22076799
      0.03000000	      1.43505104	     -1.43822941	     -2.40748939	     -1.19039888	      1.07898006	     -0.60635087	     -3.98683057	      1.57843778	     -0.01299513	     -9.67042898	     12.33555545	     -3.36537949	     -2.90373542	     -0.63468720	     -6.70908785	    -11.94441640	     14.77703937	     -0.05662034	     -1.63436518	     -0.80989546	     -5.22161909
      0.04000000	      1.47168006	     -1.42841584	     -2.35453654	     -1.19055938	      1.07902090	     -0.60635884	     -4.01338803	      1.57188235	     -0.07462363	     -9.68225700	     12.36008057	     -3.36386074	     -2.91472461	     -0.62997395	     -6.65513386	    -11.96978323	     14.78013779	     -0.04708651	     -1.67406887	     -0.82481913	     -5.28001860
      0.05000000	      1.48739886	     -1.42551689	     -2.33943655	     -1.19071949	      1.07904379	     -0.60629185	     -4.01489752	      1.57413824	     -0.06950539	     -9.69694625	     12.35793094	     -3.36229461	     -2.91291012	     -0.63276317	     -6.63937544	    -11.98433555	     14.77695264	     -0.04566851	     -1.68739830	     -0.83531143	     -5.28434148
      0.06000000	      1.50820792	     -1.42094377	     -2.31871702	     -1.19086243	      1.07906758	     -0.60623928	     -4.02276743	      1.57340368	     -0.07653046	     -9.71232497	     12.36621543	     -3.36010501	     -2.91336684	     -0.63365301	     -6.61815393	    -12.00618194	     14.77604361	     -0.04403855	     -1.70428703	     -0.84518288	     -5.30133900
      0.07000000	      1.52924754	     -1.41656080	     -2.29401533	     -1.19100215	      1.07909067	     -0.60618441	     -4.03121112	      1.57383454	     -0.09130955	     -9.72747943	     12.37764561	     -3.35700455	     -2.91478432	     -0.63517809	     -6.59351589	    -12.02587887	     14.77744803	     -0.04263684	     -1.72327293	     -0.85768282	     -5.32026568
      0.08000000	      1.53758467	     -1.41557347	     -2.28291463	     -1.19110579	      1.07910040	     -0.60610232	     -4.03211904	      1.57810434	     -0.09054936	     -9.73303632	     12.37863776	     -3.35643818	     -2.91462414	     -0.64056152	     -6.59142540	    -12.02718784	     14.77767694	     -0.04268777	     -1.72149793	     -0.86769915	     -5.32067315
      0.09000000	      1.56655343	     -1.40825735	     -2.24396024	     -1.19125222	      1.07912769	     -0.60607839	     -4.04589315	      1.57464804	     -0.13412457	     -9.75504974	     12.40820886	     -3.34748301	     -2.91853155	     -0.63835885	     -6.54563342	    -12.05517694	     14.78617461	     -0.04247200	     -1.75463279	     -0.88280951	     -5.35846952
      0.10000000	      1.57867445	     -1.40672011	     -2.23237442	     -1.19138531	      1.07914365	     -0.60600348	     -4.04488286	      1.57812605	     -0.12815099	     -9.76912108	     12.40636031	     -3.34517272	     -2.91469130	     -0.64249683	     -6.53271226	    -12.06971811	     14.78335986	     -0.04267013	     -1.76431728	     -0.89465943	     -5.35500829
      0.11000000	      1.59179851	     -1.40497893	     -2.22014307	     -1.19151715	      1.07915761	     -0.60592844	     -4.04406349	      1.58127880	     -0.12412378	     -9.78530428	     12.41063363	     -3.34310722	     -2.91070607	     -0.64696699	     -6.52060945	    -12.08649687	     14.78304871	     -0.04370264	     -1.77446503	     -0.90817898	     -5.35288001
      0.12000000	      1.60696111	     -1.40171607	     -2.21185926	     -1.19163860	      1.07917281	     -0.60585465	     -4.04436531	      1.58232575	     -0.12332800	     -9.80457635	     12.42060541	     -3.34057926	     -2.90786993	     -0.64848819	     -6.50575683	    -12.10900609	     14.78490497	     -0.04599477	     -1.78418786	     -0.92101527	     -5.35123436
      0.13000000	      1.61928127	     -1.39880114	     -2.19982323	     -1.19176584	      1.07918472	     -0.60577809	     -4.04299895	      1.58484393	     -0.12065090	     -9.82050946	     12.42904526	     -3.33874541	     -2.90421713	     -0.65184146	     -6.49596857	    -12.12384151	     14.78687347	     -0.04840535	     -1.79358270	     -0.93709341	     -5.34606682
      0.14000000	      1.63286910	     -1.39569961	     -2.19154862	     -1.19188739	      1.07919644	     -0.60569902	     -4.04212159	      1.58682295	     -0.11681387	     -9.83851278	     12.43812736	     -3.33726134	     -2.90121988	     -0.65446161	     -6.48506586	    -12.14222037	     14.78867817	     -0.05117621	     -1.80230399	     -0.95422098	     -5.33888827
      0.15000000	      1.64628645	     -1.39235771	     -2.18462517	     -1.19200759	      1.07920839	     -0.60562258	     -4.04077679	      1.58828583	     -0.11232781	     -9.85684423	     12.44749473	     -3.33618107	     -2.89843963	     -0.65636909	     -6.47527632	    -12.15993771	     14.79045584	     -0.05412124	     -1.81189934	     -0.97098350	     -5.32979292
      0.16000000	      1.66101225	     -1.38820566	     -2.18096777	     -1.19212378	      1.07922028	     -0.60554386	     -4.03923832	      1.58851295	     -0.10754302	     -9.87852032	     12.45863429	     -3.33539276	     -2.89674992	     -0.65705647	     -6.46542221	    -12.17978335	     14.79235096	     -0.05767879	     -1.82350734	     -0.98760854	     -5.31810165
      0.17000000	      1.67626047	     -1.38409641	     -2.18085666	     -1.19223622	      1.07923519	     -0.60547160	     -4.03747005	      1.58786958	     -0.10344850	     -9.90134199	     12.47114964	     -3.33499181	     -2.89763730	     -0.65655408	     -6.45888602	    -12.19677604	     14.79422826	     -0.06193706	     -1.83572133	     -1.00344928	     -5.30466981
      0.18000000	      1.69073022	     -1.38114987	     -2.17944368	     -1.19234360	      1.07925016	     -0.60539665	     -4.03560881	      1.58909473	     -0.09765505	     -9.92361720	     12.48013450	     -3.33509797	     -2.89948201	     -0.65797466	     -6.45476917	    -12.21003816	     14.79461113	     -0.06561270	     -1.84838199	     -1.01925950	     -5.28965121
      0.19000000	      1.70483578	     -1.37923720	     -2.17815706	     -1.19244769	      1.07926631	     -0.60532659	     -4.03342320	      1.59150643	     -0.09068555	     -9.94578292	     12.48641707	     -3.33573890	     -2.90232992	     -0.65989658	     -6.45156346	    -12.22101397	     14.79421724	     -0.06861122	     -1.86142530	     -1.03353661	     -5.27403079
      0.20000000	      1.71889347	     -1.37771848	     -2.17729801	     -1.19255093	      1.07928655	     -0.60525998	     -4.03084280	      1.59419398	     -0.08276037	     -9.96894329	     12.49105130	     -3.33690342	     -2.90617370	     -0.66192489	     -6.44858762	    -12.22989302	     14.79332773	     -0.07112027	     -1.87561297	     -1.04639154	     -5.25792776
      0.21000000	      1.72529467	     -1.37802119	     -2.17069178	     -1.19262081	      1.07930205	     -0.60520124	     -4.03012601	      1.59958638	     -0.07932561	     -9.97647077	     12.49116638	     -3.33705927	     -2.90738385	     -0.66668554	     -6.44861304	    -12.23020686	     14.79311605	     -0.07157496	     -1.87536804	     -1.05759682	     -5.25390936
      0.22000000	      1.74179763	     -1.37693134	     -2.16957001	     -1.19275104	      1.07932992	     -0.60515287	     -4.02233339	      1.60158699	     -0.06738801	    -10.01151250	     12.49215875	     -3.33912535	     -2.91177680	     -0.66757085	     -6.43822626	    -12.24090588	     14.79029781	     -0.07274261	     -1.90041612	     -1.06770031	     -5.23466032
      0.23000000	      1.74752476	     -1.37714068	     -2.16082624	     -1.19281531	      1.07934684	     -0.60510171	     -4.02129040	      1.60712361	     -0.06394800	    -10.01908315	     12.49243008	     -3.33944127	     -2.91379445	     -0.67195401	     -6.43907575	    -12.23852999	     14.79007924	     -0.07304970	     -1.90057307	     -1.07881967	     -5.23092944
      0.24000000	      1.75351985	     -1.37697716	     -2.14916846	     -1.19289949	      1.07936475	     -0.60506503	     -4.01745257	      1.61175724	     -0.05850269	    -10.03111828	     12.49210205	     -3.33999916	     -2.91517289	     -0.67579152	     -6.43784729	    -12.23504014	     14.78925672	     -0.07315567	     -1.90748568	     -1.08920443	     -5.22587856
      0.25000000	      1.77073137	     -1.37453783	     -2.14711740	     -1.19301778	      1.07939625	     -0.60502818	     -4.00788727	      1.61177070	     -0.04938044	    -10.07274255	     12.49308634	     -3.34333105	     -2.92785273	     -0.67342347	     -6.41888130	    -12.23376770	     14.78254513	     -0.07231678	     -1.93449336	     -1.09895457	     -5.21773563
      0.26000000	      1.77371147	     -1.37391334	     -2.13243031	     -1.19308894	      1.07940963	     -0.60500702	     -4.00554139	      1.61587753	     -0.04700274	    -10.07727491	     12.49383936	     -3.34373864	     -2.92839281	     -0.67596651	     -6.42007851	    -12.22641262	     14.78187447	     -0.07230366	     -1.93886654	     -1.10792883	     -5.21468304
      0.27000000	      1.80127506	     -1.35752514	     -2.10891413	     -1.19315619	      1.07945581	     -0.60500954	     -4.01897359	      1.60033614	     -0.07793286	    -10.10359509	     12.51421472	     -3.35406507	     -2.96676687	     -0.65653806	     -6.37275426	    -12.19571310	     14.75572811	     -0.06911536	     -1.97348133	     -1.13564196	     -5.22234127
      0.28000000	      1.80246896	     -1.35697145	     -2.09349060	     -1.19322700	      1.07946395	     -0.60499626	     -4.01545478	      1.60416829	     -0.07449133	    -10.10670437	     12.51304237	     -3.35412311	     -2.96524388	     -0.65920067	     -6.37414577	    -12.18962030	     14.75567159	     -0.06927190	     -1.98016101	     -1.14298285	     -5.22147896
      0.29000000	      1.81181252	     -1.35400359	     -2.07058626	     -1.19330520	      1.07948371	     -0.60497967	     -4.01034754	      1.60604999	     -0.07756102	    -10.13200717	     12.50801929	     -3.35598329	     -2.97145258	     -0.65941752	     -6.34666293	    -12.18498616	     14.74776082	     -0.06858821	     -1.99823488	     -1.15749851	     -5.23465919
